<?xml version="1.0" encoding="utf-8"?><svg xmlns="http://www.w3.org/2000/svg" xmlns:xlink="http://www.w3.org/1999/xlink"><symbol viewBox="0 0 24 24" id="calendar-today" xmlns="http://www.w3.org/2000/svg"><path d="M7 10h5v5H7m12 4H5V8h14m0-5h-1V1h-2v2H8V1H6v2H5a2 2 0 00-2 2v14a2 2 0 002 2h14a2 2 0 002-2V5a2 2 0 00-2-2z"/></symbol><symbol viewBox="0 0 24 24" id="check" xmlns="http://www.w3.org/2000/svg"><path d="M21 7L9 19l-5.5-5.5 1.41-1.41L9 16.17 19.59 5.59 21 7z"/></symbol><symbol viewBox="0 0 24 24" id="chevron-up" xmlns="http://www.w3.org/2000/svg"><path d="M7.41 15.41L12 10.83l4.59 4.58L18 14l-6-6-6 6 1.41 1.41z"/></symbol><symbol viewBox="0 0 24 24" id="home-outline" xmlns="http://www.w3.org/2000/svg"><path d="M12 5.69l5 4.5V18h-2v-6H9v6H7v-7.81l5-4.5M12 3L2 12h3v8h6v-6h2v6h6v-8h3L12 3z"/></symbol><symbol viewBox="0 0 24 24" id="mailbox" xmlns="http://www.w3.org/2000/svg"><path d="M17 4H7a5 5 0 00-5 5v11h18a2 2 0 002-2V9a5 5 0 00-5-5m-7 14H4V9a3 3 0 013-3 3 3 0 013 3v9m9-3h-2v-2h-4v-2h6v4M9 11H5V9h4v2z"/></symbol><symbol viewBox="0 0 24 24" id="menu" xmlns="http://www.w3.org/2000/svg"><path d="M3 6h18v2H3V6m0 5h18v2H3v-2m0 5h18v2H3v-2z"/></symbol><symbol viewBox="0 0 24 24" id="plus" xmlns="http://www.w3.org/2000/svg"><path d="M19 13h-6v6h-2v-6H5v-2h6V5h2v6h6v2z"/></symbol></svg>