<?xml version="1.0" encoding="utf-8"?><svg xmlns="http://www.w3.org/2000/svg" xmlns:xlink="http://www.w3.org/1999/xlink"><symbol viewBox="0 0 24 24" id="home-outline" xmlns="http://www.w3.org/2000/svg"><path d="M12 5.69l5 4.5V18h-2v-6H9v6H7v-7.81l5-4.5M12 3L2 12h3v8h6v-6h2v6h6v-8h3L12 3z"/></symbol><symbol viewBox="0 0 24 24" id="menu" xmlns="http://www.w3.org/2000/svg"><path d="M3 6h18v2H3V6m0 5h18v2H3v-2m0 5h18v2H3v-2z"/></symbol><symbol viewBox="0 0 24 24" id="plus" xmlns="http://www.w3.org/2000/svg"><path d="M19 13h-6v6h-2v-6H5v-2h6V5h2v6h6v2z"/></symbol></svg>